<svg width="508" height="283" xmlns="http://www.w3.org/2000/svg" xmlns:xlink="http://www.w3.org/1999/xlink">
 <g stroke="null">
  <title>background</title>
  <rect fill="none" id="canvas_background" height="285" width="510" y="-1" x="-1" stroke="null"/>
 </g>
 <defs>
  <filter id="closed_blur">
   <feGaussianBlur stdDeviation="0"/>
  </filter>
 </defs>
 <g stroke="null">
  <title>Layer 1</title>
  <ellipse fill="#0000ff" stroke-width="0" cx="276.00974" cy="195.99945" id="circuit breaker" rx="56" ry="55" stroke="#000"/>
  <rect fill="#0000ff" stroke-width="0" stroke-opacity="null" x="139.50974" y="190.99945" width="85" height="7" id="left" stroke="#000"/>
  <rect fill="#0000ff" stroke-width="1.5" stroke-opacity="null" x="162.5" y="564.5" width="50" height="50" id="svg_3" stroke="#000"/>
  <rect class="state" fill="#ff0000" stroke-width="0" stroke-opacity="null" x="272.98711" y="151.51559" width="6.00042" height="86.00041" id="open" stroke="#000"/>
  <rect fill="#e5e5e5" stroke-width="0" stroke-opacity="null" x="28.23483" y="19.50172" width="139.51233" height="109.59695" id="svg_1" stroke="#000"/>
  <text fill="#000000" stroke-width="0" stroke-opacity="null" x="35.00064" y="36.1289" id="svg_4" font-size="10" font-family="Helvetica, Arial, sans-serif" text-anchor="left" xml:space="preserve" stroke="#000">cosecutive errors:</text>
  <text fill="#000000" stroke-width="0" stroke-opacity="null" x="122.99271" y="36.12865" id="consecutive_errors" font-size="10" font-family="Helvetica, Arial, sans-serif" text-anchor="left" xml:space="preserve" stroke="#000">0</text>
  <text stroke="#000" fill="#000000" stroke-width="0" stroke-opacity="null" x="35.00147" y="64.9541" id="svg_8" font-size="10" font-family="Helvetica, Arial, sans-serif" text-anchor="left" xml:space="preserve">timestamp cb triped:</text>
  <text fill="#000000" stroke-width="0" x="130.82506" y="64.96141" id="timestamp_cb_trips" font-size="10" font-family="Helvetica, Arial, sans-serif" text-anchor="left" xml:space="preserve" stroke="#000">0</text>
  <text fill="#000000" stroke-width="0" stroke-opacity="null" fill-opacity="null" x="244.68385" y="136.45521" id="svg_9" font-size="10" font-family="Helvetica, Arial, sans-serif" text-anchor="left" xml:space="preserve" stroke="#000">circuit breaker</text>
  <ellipse fill="#00bf00" stroke-width="0" stroke-opacity="null" fill-opacity="null" cx="438.78011" cy="166.14346" id="svg_10" stroke="#000"/>
  <ellipse fill="#fff600" stroke-width="0" stroke-opacity="null" cx="444.26869" cy="194.45956" id="svg_12" rx="30.93565" ry="30.56143" stroke="#000"/>
  <text fill="#000000" stroke-width="0" stroke-opacity="null" fill-opacity="null" x="416.57629" y="159.65695" id="svg_14" font-size="10" font-family="Helvetica, Arial, sans-serif" text-anchor="left" xml:space="preserve" stroke="#000">microservice</text>
  <rect class="state" id="closed" fill="#00bf00" stroke-width="0" stroke-opacity="null" x="138.93237" y="191.49937" width="275.90489" height="7" stroke="#000"/>
  <text fill="#000000" stroke-width="0" x="131.97444" y="36.12694" id="svg_15" font-size="10" font-family="Helvetica, Arial, sans-serif" text-anchor="left" xml:space="preserve" stroke="#000">/</text>
  <text fill="#000000" stroke-width="0" x="138.95991" y="36.12663" id="threshold" font-size="10" font-family="Helvetica, Arial, sans-serif" text-anchor="left" xml:space="preserve" stroke="#000">0</text>
  <g id="svg_17" stroke="null">
   <path d="m167.16951,179.53911c0,0 0.24971,0 0.49945,0c0.49942,0 0.99886,0 1.24857,0c0.49945,0 0.99887,0 1.49831,0c0.24969,0 0.74913,0 1.24858,0c0.24974,0 0.24974,0 0.49945,0c0.24974,0 0.24974,0 0.49945,0c0,0 0,0 0,0c0.24971,-0.24971 0.24971,-0.24971 0.24971,-0.24971c0,0 0.24974,0 0.24974,0c0.24974,0 0.24974,0 0.49945,0c0.24971,0 0.24971,0 0.49945,0c0.24974,0 0.24974,0 0.49945,0c0.24973,0 0.49944,0 0.74915,0c0,0 0.24974,0 0.49945,0c0.24968,0 0.74916,0 0.74916,0c0.49945,0 0.74916,0 0.99887,0c0.24971,0 0.24971,0 0.49942,0c0,0 0.24974,0 0.49945,0c0,0 0,0 0,0c0.24974,0 0.24974,0 0.24974,0c0.24971,0 0.24971,0 0.24971,0c0,0 0.24971,0 0.24971,0c0.24974,0 0.24974,0 0.24974,0c0.24973,0 0.24973,0 0.24973,0c0,0 0.24974,0 0.24974,0c0,0 0.24974,0 0.24974,0c0,0 0,0 0.24971,0c0.24974,0 0.24974,0 0.49945,0c0,0 0.24974,0 0.24974,0c0.24974,0 0.24974,0 0.24974,0c0,0 0.24968,0 0.24968,0c0.24974,0 0.24974,0 0.49945,0c0,0 0,0 0.24971,0c0,0 0,0 0.24971,0c0,0 0,0 0,0c0.24974,0 0.24974,0 0.24974,0c0.24971,0 0.24971,0 0.24971,0c0,-0.24973 0.24973,-0.24973 0.24973,-0.24973c0.24974,0 0.24974,0 0.24974,0c0.24974,0 0.24974,0 0.24974,0c0,0 0.24971,0 0.24971,0c0.24974,0 0.24974,0 0.24974,0c0.24974,0 0.24974,0 0.24974,0c0,0 0.24971,0 0.24971,0c0,0 0,0 0.24974,0c0,0 0,0 0.24974,0c0,0 0,0 0,0c0.24971,0 0.24971,0 0.24971,0c0,0 0.24974,0 0.24974,0.24973c0,0 0,0 0.24974,0c0,0 0,0 0,0c0.24973,0 0.24973,0.24971 0.24973,0.24971c0.24968,0 0.24968,0 0.24968,0c0.24974,0 0.24974,0 0.24974,0c0.24974,0 0.24974,0 0.24974,0c0.24971,0 0.24971,0 0.24971,0c0,0 0,0 0.24971,0c0,0 0,0 0,0.24971l0,0" id="svg_7" fill-opacity="null" stroke-opacity="null" fill="none" stroke="#000"/>
   <path d="m183.90045,175.04424c0,0 0,0.24971 0.24971,0.24971c0,0 0.24971,0.24971 0.24971,0.24971c0,0 0,0 0.24973,0.24974c0,0 0.07314,0.07315 0.24973,0.24971c0.17657,0.17656 0.24971,0.24971 0.24971,0.24971c0,0 0.24971,0.24974 0.24971,0.24974c0,0 0.24974,0 0.24974,0.24971c0,0 0,0 0,0c0,0 -0.17656,0.07315 0,0.24971c0.17656,0.17656 0.24971,0 0.24971,0c0,0 -0.17656,0.07315 0,0.24974c0.17657,0.17656 0.24974,0 0.24974,0c0,0 0,0 0.24974,0.24971c0,0 0,0 0,0c0,0 0,0.24969 0.24971,0.24969c0,0 0,0 0,0c0,0 0,0.24974 0.24971,0.24974c0,0 0,0 0,0c0,0.24971 0,0.24971 0.24974,0.24971c0,0 0,0.24974 0,0.24974c0,0 0,0 0,0c0.24974,0 0.24974,0.24971 0.24974,0.24971c0,0 0,0 0,0c0,0 0.24971,0 0.24971,0.24971l0,0l0,0" id="svg_11" fill-opacity="null" stroke-opacity="null" fill="none" stroke="#000"/>
   <path d="m183.90045,183.03513c0,0 0,0 0.33295,-0.24973c0,0 0.02533,-0.15414 0.33295,-0.24971c0.43504,-0.13515 0.09752,-0.32286 0.33296,-0.49944c0.23543,-0.17657 0.33295,-0.24971 0.33295,-0.24971c0.33296,-0.24971 0.33296,-0.24971 0.33296,-0.24971c0.33295,-0.24977 0.09752,-0.32292 0.33295,-0.49948c0.23544,-0.17657 0.33296,-0.24971 0.33296,-0.24971c0,0 0,0 0.33296,-0.24974c0,0 0,0 0,0c0,0 0,-0.24971 0,-0.24971c0,0 0.33295,0 0.33295,-0.24971c0,0 0,0 0,0c0,0 0.33299,0 0.33299,-0.24973c0,0 0,0 0.33292,0c0,0 0,0 0,0c0,-0.24971 0.33296,-0.24971 0.33296,-0.24971l0,0l0,0l0,0" id="svg_13" fill-opacity="null" stroke-opacity="null" fill="none" stroke="#000"/>
  </g>
  <g class="tohide" id="svg_18" stroke="null">
   <path d="m363.38638,180.49434c0,0 0.24969,0 0.49942,0c0.49945,0 0.99887,0 1.24857,0c0.49945,0 0.99887,0 1.49829,0c0.24973,0 0.74918,0 1.2486,0c0.24969,0 0.24969,0 0.49942,0c0.24973,0 0.24973,0 0.49945,0c0,0 0,0 0,0c0.24969,-0.24971 0.24969,-0.24971 0.24969,-0.24971c0,0 0.24973,0 0.24973,0c0.24973,0 0.24973,0 0.49945,0c0.24969,0 0.24969,0 0.49942,0c0.24973,0 0.24973,0 0.49942,0c0.24973,0 0.49945,0 0.74915,0c0,0 0.24979,0 0.49945,0c0.24976,0 0.74918,0 0.74918,0c0.49942,0 0.74918,0 0.99884,0c0.24979,0 0.24979,0 0.49942,0c0,0 0.24979,0 0.49945,0c0,0 0,0 0,0c0.24969,0 0.24969,0 0.24969,0c0.24973,0 0.24973,0 0.24973,0c0,0 0.24979,0 0.24979,0c0.24982,0 0.24982,0 0.24982,0c0.2496,0 0.2496,0 0.2496,0c0,0 0.24982,0 0.24982,0c0,0 0.25,0 0.25,0c0,0 0,0 0.24976,0c0.24963,0 0.24963,0 0.49942,0c0,0 0.24973,0 0.24973,0c0.24969,0 0.24969,0 0.24969,0c0,0 0.24973,0 0.24973,0c0.24973,0 0.24973,0 0.49945,0c0,0 0,0 0.24969,0c0,0 0,0 0.24973,0c0,0 0,0 0,0c0.24973,0 0.24973,0 0.24973,0c0.24973,0 0.24973,0 0.24973,0c0,-0.24973 0.24969,-0.24973 0.24969,-0.24973c0.24973,0 0.24973,0 0.24973,0c0.24979,0 0.24979,0 0.24979,0c0,0 0.24963,0 0.24963,0c0.24979,0 0.24979,0 0.24979,0c0.24976,0 0.24976,0 0.24976,0c0,0 0.24966,0 0.24966,0c0,0 0,0 0.24976,0c0,0 0,0 0.24988,0c0,0 0,0 0,0c0.24954,0 0.24954,0 0.24954,0c0,0 0.24985,0 0.24985,0.24973c0,0 0,0 0.24988,0c0,0 0,0 0,0c0.24982,0 0.24982,0.24971 0.24982,0.24971c0.24973,0 0.24973,0 0.24973,0c0.24969,0 0.24969,0 0.24969,0c0.24973,0 0.24973,0 0.24973,0c0.24976,0 0.24976,0 0.24976,0c0,0 0,0 0.24966,0c0,0 0,0 0,0.24971l0,0" id="svg_2" fill-opacity="null" stroke-opacity="null" fill="none" stroke="#000"/>
   <path d="m380.11731,175.99945c0,0 0,0.24971 0.24973,0.24971c0,0 0.24969,0.24971 0.24969,0.24971c0,0 0,0 0.24973,0.24974c0,0 0.07315,0.07312 0.24973,0.24971c0.17657,0.17657 0.24969,0.24969 0.24969,0.24969c0,0 0.24973,0.24974 0.24973,0.24974c0,0 0.24973,0 0.24973,0.24971c0,0 0,0 0,0c0,0 -0.17636,0.07314 0,0.24968c0.17657,0.17656 0.24969,0 0.24969,0c0,0 -0.17657,0.07315 0,0.24974c0.17661,0.17656 0.24976,0 0.24976,0c0,0 0,0 0.24969,0.24973c0,0 0,0 0,0c0,0 0,0.24971 0.24973,0.24971c0,0 0,0 0,0c0,0 0,0.24974 0.24991,0.24974c0,0 0,0 0,0c0,0.24968 0,0.24968 0.24951,0.24968c0,0 0,0.24974 0,0.24974c0,0 0,0 0,0c0.24988,0 0.24988,0.24973 0.24988,0.24973c0,0 0,0 0,0c0,0 0.25,0 0.25,0.24971l0,0l0,0" id="svg_6" fill-opacity="null" stroke-opacity="null" fill="none" stroke="#000"/>
   <path d="m380.11731,183.99036c0,0 0,0 0.33295,-0.24973c0,0 0.02536,-0.15416 0.33295,-0.24971c0.43503,-0.13515 0.09753,-0.32286 0.33298,-0.49945c0.23544,-0.17656 0.33295,-0.24969 0.33295,-0.24969c0.33301,-0.24971 0.33301,-0.24971 0.33301,-0.24971c0.33313,-0.24976 0.09747,-0.32288 0.33313,-0.49945c0.23526,-0.17656 0.33313,-0.24973 0.33313,-0.24973c0,0 0,0 0.33301,-0.24973c0,0 0,0 0,0c0,0 0,-0.24971 0,-0.24971c0,0 0.33295,0 0.33295,-0.24971c0,0 0,0 0,0c0,0 0.33295,0 0.33295,-0.24974c0,0 0,0 0.33295,0c0,0 0,0 0,0c0,-0.24974 0.33295,-0.24974 0.33295,-0.24974l0,0l0,0l0,0" id="svg_16" fill-opacity="null" stroke-opacity="null" fill="none" stroke="#000"/>
  </g>
  <g id="svg_33" stroke="null">
   <path d="m167.41757,211.78714c0,0 0.24971,0 0.49945,0c0.49942,0 0.99884,0 1.24857,0c0.49944,0 0.99886,0 1.49829,0c0.24971,0 0.74915,0 1.24858,0c0.24971,0 0.24971,0 0.49942,0c0.24974,0 0.24974,0 0.49944,0c0,0 0,0 0,0c0.24971,-0.24971 0.24971,-0.24971 0.24971,-0.24971c0,0 0.24974,0 0.24974,0c0.24974,0 0.24974,0 0.49945,0c0.24971,0 0.24971,0 0.49942,0c0.24971,0 0.24971,0 0.49944,0c0.24974,0 0.49945,0 0.74916,0c0,0 0.24974,0 0.49945,0c0.24968,0 0.74916,0 0.74916,0c0.49942,0 0.74916,0 0.99887,0c0.24971,0 0.24971,0 0.49942,0c0,0 0.24974,0 0.49945,0c0,0 0,0 0,0c0.24974,0 0.24974,0 0.24974,0c0.24973,0 0.24973,0 0.24973,0c0,0 0.24971,0 0.24971,0c0.24971,0 0.24971,0 0.24971,0c0.24974,0 0.24974,0 0.24974,0c0,0 0.24974,0 0.24974,0c0,0 0.24971,0 0.24971,0c0,0 0,0 0.24971,0c0.24974,0 0.24974,0 0.49945,0c0,0 0.24974,0 0.24974,0c0.24974,0 0.24974,0 0.24974,0c0,0 0.24971,0 0.24971,0c0.24971,0 0.24971,0 0.49945,0c0,0 0,0 0.24971,0c0,0 0,0 0.24974,0c0,0 0,0 0,0c0.24969,0 0.24969,0 0.24969,0c0.24974,0 0.24974,0 0.24974,0c0,-0.24973 0.24971,-0.24973 0.24971,-0.24973c0.24974,0 0.24974,0 0.24974,0c0.24974,0 0.24974,0 0.24974,0c0,0 0.24971,0 0.24971,0c0.24973,0 0.24973,0 0.24973,0c0.24974,0 0.24974,0 0.24974,0c0,0 0.24974,0 0.24974,0c0,0 0,0 0.24974,0c0,0 0,0 0.24971,0c0,0 0,0 0,0c0.24971,0 0.24971,0 0.24971,0c0,0 0.24974,0 0.24974,0.24973c0,0 0,0 0.24974,0c0,0 0,0 0,0c0.24968,0 0.24968,0.24971 0.24968,0.24971c0.24971,0 0.24971,0 0.24971,0c0.24974,0 0.24974,0 0.24974,0c0.24974,0 0.24974,0 0.24974,0c0.24971,0 0.24971,0 0.24971,0c0,0 0,0 0.24974,0c0,0 0,0 0,0.24971l0,0" id="svg_19" fill-opacity="null" stroke-opacity="null" fill="none" stroke-dasharray="2,2" stroke="#000"/>
   <path d="m167.55035,211.99265c0,0 0,0.24971 0.24973,0.24971c0,0 0.24969,0.24971 0.24969,0.24971c0,0 0,0 0.24973,0.24974c0,0 0.07315,0.07315 0.24973,0.24971c0.17657,0.17656 0.24971,0.24971 0.24971,0.24971c0,0 0.24974,0.24974 0.24974,0.24974c0,0 0.24974,0 0.24974,0.24971c0,0 0,0 0,0c0,0 -0.17656,0.07315 0,0.24971c0.17656,0.17656 0.24968,0 0.24968,0c0,0 -0.17656,0.07315 0,0.24974c0.17656,0.17656 0.24974,0 0.24974,0c0,0 0,0 0.24974,0.24971c0,0 0,0 0,0c0,0 0,0.24969 0.24974,0.24969c0,0 0,0 0,0c0,0 0,0.24974 0.24971,0.24974c0,0 0,0 0,0c0,0.24971 0,0.24971 0.24969,0.24971c0,0 0,0.24973 0,0.24973c0,0 0,0 0,0c0.24974,0 0.24974,0.24971 0.24974,0.24971c0,0 0,0 0,0c0,0 0.24971,0 0.24971,0.24971l0,0l0,0" id="svg_20" fill-opacity="null" stroke-opacity="null" fill="none" stroke-dasharray="2,2" stroke="#000"/>
   <path d="m167.25658,212.19855c0,0 0,0 0.33295,-0.24973c0,0 0.02534,-0.15414 0.33296,-0.24971c0.43503,-0.13515 0.0975,-0.32286 0.33296,-0.49944c0.23543,-0.17657 0.33295,-0.24971 0.33295,-0.24971c0.33296,-0.24971 0.33296,-0.24971 0.33296,-0.24971c0.33298,-0.24974 0.09752,-0.32289 0.33298,-0.49945c0.23544,-0.17657 0.33296,-0.24971 0.33296,-0.24971c0,0 0,0 0.33296,-0.24974c0,0 0,0 0,0c0,0 0,-0.24971 0,-0.24971c0,0 0.33295,0 0.33295,-0.24971c0,0 0,0 0,0c0,0 0.33296,0 0.33296,-0.24974c0,0 0,0 0.33295,0c0,0 0,0 0,0c0,-0.24971 0.33296,-0.24971 0.33296,-0.24971l0,0l0,0l0,0" id="svg_21" fill-opacity="null" stroke-opacity="null" fill="none" stroke-dasharray="2,2" stroke="#000"/>
   <path d="m169.82542,214.74141c0,0 -0.09067,-0.15807 -0.14688,-0.29378c-0.07948,-0.19191 -0.1899,-0.1899 -0.29376,-0.29376c-0.10388,-0.10387 -0.1469,-0.29378 -0.1469,-0.29378c-0.14688,-0.14688 -0.14688,-0.14688 -0.29376,-0.29378c0,0 -0.04301,-0.18991 -0.1469,-0.29378c-0.10388,-0.10388 -0.18991,-0.04301 -0.29376,-0.14688c-0.10387,-0.10388 -0.04303,-0.04301 -0.1469,-0.14688c-0.10388,-0.10388 0,-0.14691 0,-0.14691c-0.14691,-0.14687 -0.14691,-0.14687 -0.14691,-0.14687c0,0 0,-0.14688 0,-0.14688c0,0 -0.14688,-0.14691 -0.14688,-0.14691c0,0 0,0 -0.14691,-0.14688c0,0 0,0 0,0c-0.14687,0 -0.14687,-0.14688 -0.14687,-0.14688c0,0 -0.14688,0 -0.14688,0c0,-0.1469 0,-0.1469 0,-0.1469c-0.14688,-0.14688 -0.14688,-0.14688 -0.14688,-0.14688c0,0 0,0 0,-0.14688l-0.14691,0" id="svg_28" fill-opacity="null" stroke-opacity="null" stroke-dasharray="2,2" stroke-width="0" fill="none" stroke="#000"/>
  </g>
  <g class="tohide" id="svg_38" stroke="null">
   <path d="m364.1571,212.78836c0,0 0.24969,0 0.49942,0c0.49945,0 0.99887,0 1.24857,0c0.49945,0 0.99887,0 1.49832,0c0.24969,0 0.74915,0 1.24857,0c0.24973,0 0.24973,0 0.49942,0c0.24976,0 0.24976,0 0.49945,0c0,0 0,0 0,0c0.24969,-0.24971 0.24969,-0.24971 0.24969,-0.24971c0,0 0.24973,0 0.24973,0c0.24973,0 0.24973,0 0.49945,0c0.24969,0 0.24969,0 0.49942,0c0.24973,0 0.24973,0 0.49945,0c0.24973,0 0.49942,0 0.74915,0c0,0 0.24969,0 0.49945,0c0.24969,0 0.74915,0 0.74915,0c0.49942,0 0.74918,0 0.99884,0c0.24976,0 0.24976,0 0.49942,0c0,0 0.24976,0 0.49945,0c0,0 0,0 0,0c0.24976,0 0.24976,0 0.24976,0c0.24979,0 0.24979,0 0.24979,0c0,0 0.24963,0 0.24963,0c0.24976,0 0.24976,0 0.24976,0c0.25,0 0.25,0 0.25,0c0,0 0.24982,0 0.24982,0c0,0 0.2496,0 0.2496,0c0,0 0,0 0.24982,0c0.24973,0 0.24973,0 0.49945,0c0,0 0.24973,0 0.24973,0c0.24973,0 0.24973,0 0.24973,0c0,0 0.24969,0 0.24969,0c0.24973,0 0.24973,0 0.49945,0c0,0 0,0 0.24969,0c0,0 0,0 0.24973,0c0,0 0,0 0,0c0.24973,0 0.24973,0 0.24973,0c0.24973,0 0.24973,0 0.24973,0c0,-0.24973 0.24969,-0.24973 0.24969,-0.24973c0.24976,0 0.24976,0 0.24976,0c0.24969,0 0.24969,0 0.24969,0c0,0 0.24973,0 0.24973,0c0.24979,0 0.24979,0 0.24979,0c0.24991,0 0.24991,0 0.24991,0c0,0 0.2496,0 0.2496,0c0,0 0,0 0.24988,0c0,0 0,0 0.24985,0c0,0 0,0 0,0c0.24973,0 0.24973,0 0.24973,0c0,0 0.24969,0 0.24969,0.24973c0,0 0,0 0.24976,0c0,0 0,0 0,0c0.24969,0 0.24969,0.24971 0.24969,0.24971c0.24973,0 0.24973,0 0.24973,0c0.24973,0 0.24973,0 0.24973,0c0.24973,0 0.24973,0 0.24973,0c0.24969,0 0.24969,0 0.24969,0c0,0 0,0 0.24973,0c0,0 0,0 0,0.24971l0,0" id="svg_34" fill-opacity="null" stroke-opacity="null" fill="none" stroke-dasharray="2,2" stroke="#000"/>
   <path d="m364.28986,212.99387c0,0 0,0.24971 0.24976,0.24971c0,0 0.24969,0.24971 0.24969,0.24971c0,0 0,0 0.24973,0.24974c0,0 0.07312,0.07315 0.24973,0.24971c0.17654,0.17656 0.24988,0.24971 0.24988,0.24971c0,0 0.24954,0.24974 0.24954,0.24974c0,0 0.24985,0 0.24985,0.24971c0,0 0,0 0,0c0,0 -0.1763,0.07315 0,0.24971c0.17645,0.17656 0.24957,0 0.24957,0c0,0 -0.17645,0.07315 0,0.24974c0.17657,0.17656 0.24985,0 0.24985,0c0,0 0,0 0.25,0.24969c0,0 0,0 0,0c0,0 0,0.24971 0.24979,0.24971c0,0 0,0 0,0c0,0 0,0.24974 0.24963,0.24974c0,0 0,0 0,0c0,0.24971 0,0.24971 0.24939,0.24971c0,0 0,0.24973 0,0.24973c0,0 0,0 0,0c0.25,0 0.25,0.24971 0.25,0.24971c0,0 0,0 0,0c0,0 0.24982,0 0.24982,0.24971l0,0l0,0" id="svg_35" fill-opacity="null" stroke-opacity="null" fill="none" stroke-dasharray="2,2" stroke="#000"/>
   <path d="m363.99609,213.19977c0,0 0,0 0.33295,-0.24973c0,0 0.02536,-0.15414 0.33298,-0.24971c0.43503,-0.13515 0.0975,-0.32286 0.33295,-0.49944c0.23544,-0.17657 0.33295,-0.24971 0.33295,-0.24971c0.33298,-0.24971 0.33298,-0.24971 0.33298,-0.24971c0.33295,-0.24974 0.0975,-0.32289 0.33295,-0.49945c0.23544,-0.17657 0.3331,-0.24971 0.3331,-0.24971c0,0 0,0 0.33316,-0.24974c0,0 0,0 0,0c0,0 0,-0.24971 0,-0.24971c0,0 0.33301,0 0.33301,-0.24971c0,0 0,0 0,0c0,0 0.33295,0 0.33295,-0.24974c0,0 0,0 0.33295,0c0,0 0,0 0,0c0,-0.24971 0.33298,-0.24971 0.33298,-0.24971l0,0l0,0l0,0" id="svg_36" fill-opacity="null" stroke-opacity="null" fill="none" stroke-dasharray="2,2" stroke="#000"/>
   <path d="m366.56497,215.74263c0,0 -0.0907,-0.15807 -0.14691,-0.29378c-0.07947,-0.19191 -0.18988,-0.1899 -0.29376,-0.29376c-0.10388,-0.10387 -0.14688,-0.29378 -0.14688,-0.29378c-0.14688,-0.14688 -0.14688,-0.14688 -0.29379,-0.29378c0,0 -0.043,-0.18991 -0.14688,-0.29379c-0.10385,-0.10387 -0.18991,-0.043 -0.29376,-0.14687c-0.10382,-0.10388 -0.04303,-0.04301 -0.14688,-0.14688c-0.10385,-0.10388 0,-0.14691 0,-0.14691c-0.14685,-0.14688 -0.14685,-0.14688 -0.14685,-0.14688c0,0 0,-0.14687 0,-0.14687c0,0 -0.14691,-0.14691 -0.14691,-0.14691c0,0 0,0 -0.14685,-0.14688c0,0 0,0 0,0c-0.14691,0 -0.14691,-0.14688 -0.14691,-0.14688c0,0 -0.14685,0 -0.14685,0c0,-0.1469 0,-0.1469 0,-0.1469c-0.14682,-0.14688 -0.14682,-0.14688 -0.14682,-0.14688c0,0 0,0 0,-0.14688l-0.14679,0" id="svg_37" fill-opacity="null" stroke-opacity="null" stroke-dasharray="2,2" stroke-width="0" fill="none" stroke="#000"/>
  </g>
  <g data-bms-widget="icheckbox" data-checked="false" id="microservice_response_ok" stroke="null">
   <rect id="svg_22" x="140.95291" y="86.14092" rx="1" ry="1" width="12" height="12" fill="lightgray" stroke="black"/>
   <polygon id="svg_23" points="142.05760964751244,93.61393308639526 143.47960671782494,92.19093656539917 145.38060769438744,94.09293699264526 150.1906052529812,87.14092588424683 151.8476181924343,88.28892087936401 145.5876084268093,97.14092588424683 " fill="black" opacity="0" stroke="null"/>
  </g>
  <text fill="#000000" stroke-width="0" stroke-opacity="null" x="35.00656" y="95.6369" id="svg_25" font-size="10" font-family="Helvetica, Arial, sans-serif" text-anchor="left" xml:space="preserve" stroke="#000">microservice response</text>
  <g data-bms-widget="ibutton" data-text="Send Request" id="send_request">
   <rect id="svg_24" x="28.47803" y="181.00266" width="105" height="25" fill="#ededed" stroke="black"/>
   <text id="svg_26" x="38.47803" y="199.00266" fill="black">Send Request</text>
  </g>
  <image x="32.17811" y="97.72528" width="25.07494" height="23.57644" id="clock" xlink:href="time.png"/>
  <text fill="#000000" stroke-width="0" stroke-opacity="null" x="59.70194" y="118.06434" id="svg_30" font-size="10" font-family="Helvetica, Arial, sans-serif" text-anchor="left" xml:space="preserve" stroke="#000">time:</text>
  <text fill="#000000" stroke-width="0" stroke-opacity="null" x="87.26294" y="118.06298" id="time" font-size="10" font-family="Helvetica, Arial, sans-serif" text-anchor="left" xml:space="preserve" stroke="#000">0</text>
  <rect class="state" transform="rotate(-47 275.9873352050782,194.51580810546872) " fill="#ffff56" stroke-width="0" stroke-opacity="null" x="272.98711" y="151.51559" width="6.00042" height="86.00041" id="halfopen" stroke="#000"/>
  <text stroke="#000" fill="#000000" stroke-width="0" stroke-opacity="null" x="35.00238" y="80.83856" id="svg_27" font-size="10" font-family="Helvetica, Arial, sans-serif" text-anchor="left" xml:space="preserve">TIMEOUT_PERIOD:</text>
  <text fill="#000000" stroke-width="0" x="129.84159" y="80.84348" id="timeout" font-size="10" font-family="Helvetica, Arial, sans-serif" text-anchor="left" xml:space="preserve" stroke="#000">0</text>
  <text fill="#000000" stroke-width="0" stroke-opacity="null" x="35.00096" y="51.22709" id="svg_5" font-size="10" font-family="Helvetica, Arial, sans-serif" text-anchor="left" xml:space="preserve" stroke="#000">test requests to close:</text>
  <text fill="#000000" stroke-width="0" stroke-opacity="null" x="138.72276" y="51.24215" id="test_request_to_go" font-size="10" font-family="Helvetica, Arial, sans-serif" text-anchor="left" xml:space="preserve" stroke="#000">0</text>
  <text fill="#000000" stroke-width="0" x="147.70449" y="51.24044" id="svg_31" font-size="10" font-family="Helvetica, Arial, sans-serif" text-anchor="left" xml:space="preserve" stroke="#000">/</text>
  <text fill="#000000" stroke-width="0" x="154.68996" y="51.24044" id="AMOUNT_TEST_REQUESTS" font-size="10" font-family="Helvetica, Arial, sans-serif" text-anchor="left" xml:space="preserve" stroke="#000">0</text>
 </g>
</svg>